<svg width="50" height="50" viewBox="0 0 50 50" fill="none" xmlns="http://www.w3.org/2000/svg" xmlns:xlink="http://www.w3.org/1999/xlink">
<path d="M25,5.729C14.357,5.729 5.729,14.357 5.729,25C5.729,35.643 14.357,44.271 25,44.271C35.643,44.271 44.271,35.643 44.271,25C44.271,14.357 35.643,5.729 25,5.729ZM2.604,25C2.604,12.631 12.631,2.604 25,2.604C37.369,2.604 47.396,12.631 47.396,25C47.396,37.369 37.369,47.396 25,47.396C12.631,47.396 2.604,37.369 2.604,25Z" clip-rule="evenodd" fill-rule="evenodd" fill="#FFFFFF"/>
<circle cx="25" cy="25" r="20.833" fill="#FFFFFF"/>
<path d="M33.917,19.208C34.527,19.818 34.527,20.807 33.917,21.417L23.501,31.834C22.89,32.444 21.901,32.444 21.291,31.834L17.124,27.667C16.514,27.057 16.514,26.068 17.124,25.458C17.734,24.847 18.724,24.847 19.334,25.458L22.396,28.519L31.708,19.208C32.318,18.597 33.307,18.597 33.917,19.208Z" clip-rule="evenodd" fill-rule="evenodd" fill="#FFFFFF"/>
</svg>
