<svg width="50" height="50" viewBox="0 0 50 50" fill="none" xmlns="http://www.w3.org/2000/svg" xmlns:xlink="http://www.w3.org/1999/xlink">
<path d="M41.734,41.656L8.266,41.656C6.505,41.654 4.817,40.954 3.572,39.709C2.327,38.464 1.627,36.776 1.625,35.016L1.625,14.984C1.627,13.224 2.327,11.536 3.572,10.291C4.817,9.046 6.505,8.346 8.266,8.344L41.734,8.344C43.495,8.346 45.183,9.046 46.428,10.291C47.673,11.536 48.373,13.224 48.375,14.984L48.375,35.016C48.373,36.776 47.673,38.464 46.428,39.709C45.183,40.954 43.495,41.654 41.734,41.656ZM8.266,10.688C7.126,10.688 6.033,11.14 5.227,11.946C4.421,12.752 3.969,13.845 3.969,14.984L3.969,35.016C3.969,36.155 4.421,37.248 5.227,38.054C6.033,38.86 7.126,39.313 8.266,39.313L41.734,39.313C42.874,39.313 43.967,38.86 44.773,38.054C45.579,37.248 46.031,36.155 46.031,35.016L46.031,14.984C46.031,13.845 45.579,12.752 44.773,11.946C43.967,11.14 42.874,10.688 41.734,10.688L8.266,10.688Z" fill="#000000" fill-opacity="0.3"/>
<path d="M25,29.75C23.554,29.752 22.147,29.283 20.992,28.414L2.75,14.617C2.621,14.527 2.512,14.411 2.428,14.278C2.345,14.144 2.29,13.995 2.265,13.839C2.241,13.684 2.248,13.525 2.287,13.372C2.325,13.219 2.394,13.076 2.489,12.95C2.584,12.825 2.703,12.72 2.84,12.642C2.977,12.563 3.127,12.513 3.284,12.494C3.44,12.476 3.599,12.489 3.75,12.533C3.901,12.577 4.042,12.65 4.164,12.75L22.406,26.563C23.155,27.122 24.065,27.424 25,27.424C25.935,27.424 26.844,27.122 27.594,26.563L45.836,12.75C45.958,12.65 46.099,12.577 46.25,12.533C46.401,12.489 46.56,12.476 46.716,12.494C46.872,12.513 47.023,12.563 47.16,12.642C47.296,12.72 47.416,12.825 47.511,12.95C47.606,13.076 47.675,13.219 47.713,13.372C47.752,13.525 47.759,13.684 47.734,13.839C47.71,13.995 47.655,14.144 47.571,14.278C47.488,14.411 47.379,14.527 47.25,14.617L29.008,28.414C27.853,29.283 26.446,29.752 25,29.75Z" fill="#000000" fill-opacity="0.3"/>
<path d="M3.258,38.391C3.02,38.391 2.788,38.319 2.592,38.184C2.396,38.05 2.246,37.859 2.161,37.637C2.077,37.415 2.061,37.172 2.118,36.941C2.174,36.71 2.299,36.502 2.477,36.344L16.852,23.523C17.084,23.316 17.389,23.21 17.699,23.227C18.01,23.245 18.301,23.385 18.508,23.617C18.715,23.849 18.822,24.154 18.804,24.465C18.786,24.775 18.646,25.066 18.414,25.273L4.039,38.094C3.826,38.288 3.546,38.394 3.258,38.391ZM46.742,38.391C46.454,38.394 46.174,38.288 45.961,38.094L31.586,25.273C31.354,25.066 31.214,24.775 31.196,24.465C31.178,24.154 31.285,23.849 31.492,23.617C31.699,23.385 31.99,23.245 32.301,23.227C32.611,23.21 32.916,23.316 33.148,23.523L47.516,36.344C47.693,36.502 47.818,36.71 47.875,36.941C47.931,37.172 47.916,37.415 47.831,37.637C47.746,37.859 47.596,38.05 47.4,38.184C47.204,38.319 46.972,38.391 46.734,38.391L46.742,38.391Z" fill="#000000" fill-opacity="0.3"/>
</svg>
