<svg width="54" height="84" viewBox="0 0 54 84" fill="none" xmlns="http://www.w3.org/2000/svg" xmlns:xlink="http://www.w3.org/1999/xlink">
<path d="M27,83.667C26.125,83.667 25.375,83.389 24.75,82.833C24.125,82.278 23.656,81.549 23.344,80.646C22.156,76.757 20.656,73.111 18.844,69.708C17.094,66.306 14.625,62.313 11.438,57.729C8.25,53.146 5.656,48.771 3.656,44.604C1.719,40.438 0.75,35.403 0.75,29.5C0.75,21.375 3.281,14.5 8.344,8.875C13.469,3.181 19.688,0.333 27,0.333C34.313,0.333 40.5,3.181 45.562,8.875C50.688,14.5 53.25,21.375 53.25,29.5C53.25,35.82 52.156,41.097 49.969,45.333C47.844,49.5 45.375,53.632 42.563,57.729C39.188,62.729 36.625,66.896 34.875,70.229C33.188,73.493 31.781,76.965 30.656,80.646C30.344,81.618 29.844,82.382 29.156,82.938C28.531,83.424 27.813,83.667 27,83.667ZM27,39.917C29.625,39.917 31.844,38.91 33.656,36.896C35.469,34.882 36.375,32.417 36.375,29.5C36.375,26.583 35.469,24.118 33.656,22.104C31.844,20.09 29.625,19.083 27,19.083C24.375,19.083 22.156,20.09 20.344,22.104C18.531,24.118 17.625,26.583 17.625,29.5C17.625,32.417 18.531,34.882 20.344,36.896C22.156,38.91 24.375,39.917 27,39.917Z" fill="#FF0000"/>
</svg>
