<svg width="52" height="30" viewBox="0 0 52 30" fill="none" xmlns="http://www.w3.org/2000/svg" xmlns:xlink="http://www.w3.org/1999/xlink">
<path d="M38.002,4.15L6.575,4.15C5.742,4.15 4.942,4.526 4.353,5.196C3.764,5.865 3.432,6.773 3.432,7.72L3.432,21.999C3.432,22.946 3.764,23.854 4.353,24.523C4.942,25.193 5.742,25.569 6.575,25.569L38.002,25.569C38.835,25.569 39.635,25.193 40.224,24.523C40.813,23.854 41.144,22.946 41.144,21.999L41.144,7.72C41.144,6.773 40.813,5.865 40.224,5.196C39.635,4.526 38.835,4.15 38.002,4.15ZM6.575,0.58C4.908,0.58 3.309,1.332 2.131,2.671C0.952,4.01 0.29,5.826 0.29,7.72L0.29,21.999C0.29,23.893 0.952,25.709 2.131,27.048C3.309,28.386 4.908,29.139 6.575,29.139L38.002,29.139C39.669,29.139 41.267,28.386 42.446,27.048C43.625,25.709 44.287,23.893 44.287,21.999L44.287,7.72C44.287,5.826 43.625,4.01 42.446,2.671C41.267,1.332 39.669,0.58 38.002,0.58L6.575,0.58Z" clip-rule="evenodd" fill-rule="evenodd" transform="rotate(-2.363 22.288 14.86)" fill="#FFFFFF"/>
<path d="M6.574,7.59L38,7.59L38,21.87L6.574,21.87L6.574,7.59ZM45.857,20.085C47.107,20.085 48.306,19.52 49.19,18.516C50.074,17.512 50.571,16.15 50.571,14.73C50.571,13.31 50.074,11.948 49.19,10.944C48.306,9.939 47.107,9.375 45.857,9.375L45.857,20.085Z" transform="rotate(-2.363 28.572 14.73)" fill="#FFFFFF"/>
</svg>
