<svg width="48" height="48" viewBox="0 0 48 48" fill="none" xmlns="http://www.w3.org/2000/svg" xmlns:xlink="http://www.w3.org/1999/xlink">
<path d="M26,10.5C26,8.843 24.657,7.5 23,7.5C21.343,7.5 20,8.843 20,10.5L26,10.5ZM23,23L20,23C20,24.136 20.642,25.175 21.658,25.683L23,23ZM29.992,29.85C31.474,30.591 33.276,29.99 34.017,28.508C34.758,27.026 34.157,25.224 32.675,24.483L29.992,29.85ZM40.833,23C40.833,32.849 32.849,40.833 23,40.833L23,46.833C36.163,46.833 46.833,36.163 46.833,23L40.833,23ZM23,40.833C13.151,40.833 5.167,32.849 5.167,23L-0.833,23C-0.833,36.163 9.837,46.833 23,46.833L23,40.833ZM5.167,23C5.167,13.151 13.151,5.167 23,5.167L23,-0.833C9.837,-0.833 -0.833,9.837 -0.833,23L5.167,23ZM23,5.167C32.849,5.167 40.833,13.151 40.833,23L46.833,23C46.833,9.837 36.163,-0.833 23,-0.833L23,5.167ZM20,10.5L20,23L26,23L26,10.5L20,10.5ZM21.658,25.683L29.992,29.85L32.675,24.483L24.342,20.317L21.658,25.683Z" fill="#FFFFFF"/>
</svg>
