<svg width="46" height="46" viewBox="0 0 46 46" fill="none" xmlns="http://www.w3.org/2000/svg" xmlns:xlink="http://www.w3.org/1999/xlink">
<path d="M26.625,11.125L24.503,9.004C24.496,9.011 24.489,9.018 24.482,9.025L26.625,11.125ZM26.625,14.042L24.482,16.142C24.489,16.149 24.496,16.156 24.503,16.163L26.625,14.042ZM29.958,17.375L27.837,19.496C27.844,19.503 27.851,19.511 27.858,19.518L29.958,17.375ZM32.875,17.375L34.975,19.518C34.982,19.511 34.989,19.503 34.996,19.496L32.875,17.375ZM40.729,9.521L43.462,8.284C43.056,7.387 42.236,6.746 41.267,6.57C40.298,6.393 39.304,6.703 38.608,7.4L40.729,9.521ZM24.187,26.063L25.424,23.329C24.286,22.815 22.949,23.058 22.066,23.941L24.187,26.063ZM9.791,40.458L7.67,38.337L7.67,38.337L9.791,40.458ZM6.666,41.753L6.666,44.753L6.666,41.753ZM2.247,37.333L-0.753,37.333L2.247,37.333ZM3.541,34.208L1.42,32.087L1.42,32.087L3.541,34.208ZM17.937,19.813L20.059,21.934C20.942,21.051 21.185,19.713 20.671,18.576L17.937,19.813ZM34.479,3.271L36.6,5.392C37.297,4.696 37.607,3.702 37.43,2.733C37.254,1.764 36.613,0.944 35.716,0.538L34.479,3.271ZM24.482,9.025C23.551,9.975 23.029,11.253 23.029,12.583L29.029,12.583C29.029,12.823 28.935,13.054 28.767,13.225L24.482,9.025ZM23.029,12.583C23.029,13.914 23.551,15.192 24.482,16.142L28.767,11.942C28.935,12.113 29.029,12.343 29.029,12.583L23.029,12.583ZM24.503,16.163L27.837,19.496L32.079,15.254L28.746,11.92L24.503,16.163ZM27.858,19.518C28.808,20.449 30.086,20.971 31.416,20.971L31.416,14.971C31.656,14.971 31.887,15.065 32.058,15.233L27.858,19.518ZM31.416,20.971C32.747,20.971 34.025,20.449 34.975,19.518L30.775,15.233C30.946,15.065 31.176,14.971 31.416,14.971L31.416,20.971ZM34.996,19.496L42.85,11.642L38.608,7.4L30.753,15.254L34.996,19.496ZM37.996,10.758C38.792,12.517 39.033,14.477 38.687,16.377L44.59,17.453C45.154,14.353 44.761,11.155 43.462,8.284L37.996,10.758ZM38.687,16.377C38.341,18.277 37.424,20.026 36.058,21.392L40.301,25.635C42.529,23.407 44.025,20.553 44.59,17.453L38.687,16.377ZM36.058,21.392C34.693,22.757 32.943,23.674 31.044,24.02L32.119,29.923C35.219,29.359 38.073,27.862 40.301,25.635L36.058,21.392ZM31.044,24.02C29.144,24.367 27.183,24.126 25.424,23.329L22.95,28.796C25.821,30.095 29.019,30.488 32.119,29.923L31.044,24.02ZM22.066,23.941L7.67,38.337L11.913,42.58L26.309,28.184L22.066,23.941ZM7.67,38.337C7.404,38.603 7.043,38.753 6.666,38.753L6.666,44.753C8.634,44.753 10.521,43.971 11.913,42.58L7.67,38.337ZM6.666,38.753C6.29,38.753 5.929,38.603 5.663,38.337L1.42,42.58C2.812,43.971 4.699,44.753 6.666,44.753L6.666,38.753ZM5.663,38.337C5.397,38.071 5.247,37.71 5.247,37.333L-0.753,37.333C-0.753,39.301 0.029,41.188 1.42,42.58L5.663,38.337ZM5.247,37.333C5.247,36.957 5.397,36.596 5.663,36.33L1.42,32.087C0.029,33.479 -0.753,35.366 -0.753,37.333L5.247,37.333ZM5.663,36.33L20.059,21.934L15.816,17.691L1.42,32.087L5.663,36.33ZM20.671,18.576C19.874,16.816 19.633,14.856 19.979,12.956L14.077,11.881C13.512,14.981 13.905,18.179 15.204,21.049L20.671,18.576ZM19.979,12.956C20.326,11.056 21.243,9.307 22.608,7.942L18.365,3.699C16.137,5.927 14.641,8.781 14.077,11.881L19.979,12.956ZM22.608,7.942C23.974,6.576 25.723,5.659 27.623,5.313L26.547,-0.59C23.447,-0.025 20.593,1.471 18.365,3.699L22.608,7.942ZM27.623,5.313C29.522,4.967 31.483,5.208 33.242,6.004L35.716,0.538C32.845,-0.761 29.647,-1.155 26.547,-0.59L27.623,5.313ZM32.358,1.15L24.503,9.004L28.746,13.246L36.6,5.392L32.358,1.15Z" fill="#FFFFFF"/>
</svg>
