<svg width="30" height="48" viewBox="0 0 30 48" fill="none" xmlns="http://www.w3.org/2000/svg" xmlns:xlink="http://www.w3.org/1999/xlink">
<path d="M14.583,46.296C14.097,46.296 13.681,46.142 13.333,45.833C12.986,45.525 12.726,45.12 12.552,44.618C11.892,42.458 11.059,40.432 10.052,38.542C9.08,36.651 7.708,34.433 5.938,31.887C4.167,29.34 2.726,26.91 1.615,24.595C0.538,22.28 0,19.483 0,16.204C0,11.69 1.406,7.87 4.219,4.745C7.066,1.582 10.521,0 14.583,0C18.646,0 22.083,1.582 24.896,4.745C27.743,7.87 29.167,11.69 29.167,16.204C29.167,19.714 28.559,22.647 27.344,25C26.163,27.315 24.792,29.61 23.229,31.887C21.354,34.664 19.931,36.979 18.958,38.831C18.021,40.644 17.24,42.573 16.615,44.618C16.441,45.158 16.163,45.583 15.781,45.891C15.434,46.161 15.035,46.296 14.583,46.296ZM14.583,21.991C16.042,21.991 17.274,21.431 18.281,20.313C19.288,19.194 19.792,17.824 19.792,16.204C19.792,14.583 19.288,13.214 18.281,12.095C17.274,10.976 16.042,10.417 14.583,10.417C13.125,10.417 11.892,10.976 10.885,12.095C9.878,13.214 9.375,14.583 9.375,16.204C9.375,17.824 9.878,19.194 10.885,20.313C11.892,21.431 13.125,21.991 14.583,21.991Z" fill="#FF0000"/>
</svg>
