<svg width="32" height="44" viewBox="0 0 32 44" fill="none" xmlns="http://www.w3.org/2000/svg" xmlns:xlink="http://www.w3.org/1999/xlink">
<path d="M16,43.667C15.494,43.667 15.061,43.522 14.7,43.233C14.339,42.944 14.068,42.565 13.887,42.096C13.201,40.073 12.334,38.178 11.287,36.408C10.276,34.639 8.85,32.562 7.008,30.179C5.166,27.796 3.668,25.521 2.512,23.354C1.393,21.187 0.833,18.569 0.833,15.5C0.833,11.275 2.296,7.7 5.221,4.775C8.182,1.814 11.775,0.333 16,0.333C20.225,0.333 23.8,1.814 26.725,4.775C29.686,7.7 31.166,11.275 31.166,15.5C31.166,18.786 30.534,21.53 29.271,23.733C28.043,25.9 26.616,28.048 24.991,30.179C23.041,32.779 21.561,34.946 20.55,36.679C19.575,38.376 18.762,40.182 18.112,42.096C17.932,42.601 17.643,42.998 17.246,43.287C16.884,43.54 16.469,43.667 16,43.667ZM16,20.917C17.516,20.917 18.798,20.393 19.846,19.346C20.893,18.299 21.416,17.017 21.416,15.5C21.416,13.983 20.893,12.701 19.846,11.654C18.798,10.607 17.516,10.083 16,10.083C14.483,10.083 13.201,10.607 12.154,11.654C11.107,12.701 10.583,13.983 10.583,15.5C10.583,17.017 11.107,18.299 12.154,19.346C13.201,20.393 14.483,20.917 16,20.917Z" fill="#FFFFFF"/>
</svg>
