<svg width="52" height="32" viewBox="0 0 52 32" fill="none" xmlns="http://www.w3.org/2000/svg" xmlns:xlink="http://www.w3.org/1999/xlink">
<path d="M10.416,30.5C12.073,30.5 13.416,29.157 13.416,27.5C13.416,25.843 12.073,24.5 10.416,24.5L10.416,30.5ZM2.083,23.333L-0.917,23.333L2.083,23.333ZM6.25,2.5L6.25,-0.5L6.25,2.5ZM12.896,5.5C14.552,5.5 15.896,4.157 15.896,2.5C15.896,0.843 14.552,-0.5 12.896,-0.5L12.896,5.5ZM31.25,-0.5C29.593,-0.5 28.25,0.843 28.25,2.5C28.25,4.157 29.593,5.5 31.25,5.5L31.25,-0.5ZM35.416,2.5L35.416,-0.5L35.416,2.5ZM28.771,24.5C27.114,24.5 25.771,25.843 25.771,27.5C25.771,29.157 27.114,30.5 28.771,30.5L28.771,24.5ZM44.916,17.083C44.916,18.74 46.259,20.083 47.916,20.083C49.573,20.083 50.916,18.74 50.916,17.083L44.916,17.083ZM50.916,12.917C50.916,11.26 49.573,9.917 47.916,9.917C46.259,9.917 44.916,11.26 44.916,12.917L50.916,12.917ZM25.412,4.164C26.332,2.786 25.959,0.923 24.58,0.004C23.202,-0.915 21.339,-0.543 20.42,0.836L25.412,4.164ZM14.583,15L12.087,13.336C11.473,14.256 11.416,15.44 11.938,16.416C12.46,17.391 13.477,18 14.583,18L14.583,15ZM27.083,15L29.579,16.664C30.193,15.744 30.25,14.56 29.728,13.584C29.206,12.609 28.189,12 27.083,12L27.083,15ZM16.254,25.836C15.334,27.214 15.707,29.077 17.086,29.996C18.464,30.915 20.327,30.543 21.246,29.164L16.254,25.836ZM10.416,24.5L6.25,24.5L6.25,30.5L10.416,30.5L10.416,24.5ZM6.25,24.5C5.94,24.5 5.644,24.377 5.425,24.158L1.182,28.401C2.526,29.745 4.349,30.5 6.25,30.5L6.25,24.5ZM5.425,24.158C5.206,23.939 5.083,23.643 5.083,23.333L-0.917,23.333C-0.917,25.234 -0.162,27.057 1.182,28.401L5.425,24.158ZM5.083,23.333L5.083,6.667L-0.917,6.667L-0.917,23.333L5.083,23.333ZM5.083,6.667C5.083,6.357 5.206,6.061 5.425,5.842L1.182,1.599C-0.162,2.943 -0.917,4.766 -0.917,6.667L5.083,6.667ZM5.425,5.842C5.644,5.623 5.94,5.5 6.25,5.5L6.25,-0.5C4.349,-0.5 2.526,0.255 1.182,1.599L5.425,5.842ZM6.25,5.5L12.896,5.5L12.896,-0.5L6.25,-0.5L6.25,5.5ZM31.25,5.5L35.416,5.5L35.416,-0.5L31.25,-0.5L31.25,5.5ZM35.416,5.5C35.726,5.5 36.022,5.623 36.241,5.842L40.484,1.599C39.14,0.255 37.317,-0.5 35.416,-0.5L35.416,5.5ZM36.241,5.842C36.46,6.061 36.583,6.357 36.583,6.667L42.583,6.667C42.583,4.766 41.828,2.943 40.484,1.599L36.241,5.842ZM36.583,6.667L36.583,23.333L42.583,23.333L42.583,6.667L36.583,6.667ZM36.583,23.333C36.583,23.643 36.46,23.939 36.241,24.158L40.484,28.401C41.828,27.057 42.583,25.234 42.583,23.333L36.583,23.333ZM36.241,24.158C36.022,24.377 35.726,24.5 35.416,24.5L35.416,30.5C37.317,30.5 39.14,29.745 40.484,28.401L36.241,24.158ZM35.416,24.5L28.771,24.5L28.771,30.5L35.416,30.5L35.416,24.5ZM50.916,17.083L50.916,12.917L44.916,12.917L44.916,17.083L50.916,17.083ZM20.42,0.836L12.087,13.336L17.079,16.664L25.412,4.164L20.42,0.836ZM14.583,18L27.083,18L27.083,12L14.583,12L14.583,18ZM24.587,13.336L16.254,25.836L21.246,29.164L29.579,16.664L24.587,13.336Z" fill="#FFFFFF"/>
</svg>
