<svg width="44" height="48" viewBox="0 0 44 48" fill="none" xmlns="http://www.w3.org/2000/svg" xmlns:xlink="http://www.w3.org/1999/xlink">
<path d="M32.333,2.167C32.333,0.51 30.99,-0.833 29.333,-0.833C27.676,-0.833 26.333,0.51 26.333,2.167L32.333,2.167ZM26.333,10.5C26.333,12.157 27.676,13.5 29.333,13.5C30.99,13.5 32.333,12.157 32.333,10.5L26.333,10.5ZM15.667,2.167C15.667,0.51 14.324,-0.833 12.667,-0.833C11.01,-0.833 9.667,0.51 9.667,2.167L15.667,2.167ZM9.667,10.5C9.667,12.157 11.01,13.5 12.667,13.5C14.324,13.5 15.667,12.157 15.667,10.5L9.667,10.5ZM2.25,15.833C0.593,15.833 -0.75,17.176 -0.75,18.833C-0.75,20.49 0.593,21.833 2.25,21.833L2.25,15.833ZM39.75,21.833C41.407,21.833 42.75,20.49 42.75,18.833C42.75,17.176 41.407,15.833 39.75,15.833L39.75,21.833ZM6.417,9.333L35.583,9.333L35.583,3.333L6.417,3.333L6.417,9.333ZM35.583,9.333C36.228,9.333 36.75,9.856 36.75,10.5L42.75,10.5C42.75,6.542 39.541,3.333 35.583,3.333L35.583,9.333ZM36.75,10.5L36.75,39.667L42.75,39.667L42.75,10.5L36.75,10.5ZM36.75,39.667C36.75,40.311 36.228,40.833 35.583,40.833L35.583,46.833C39.541,46.833 42.75,43.625 42.75,39.667L36.75,39.667ZM35.583,40.833L6.417,40.833L6.417,46.833L35.583,46.833L35.583,40.833ZM6.417,40.833C5.772,40.833 5.25,40.311 5.25,39.667L-0.75,39.667C-0.75,43.625 2.459,46.833 6.417,46.833L6.417,40.833ZM5.25,39.667L5.25,10.5L-0.75,10.5L-0.75,39.667L5.25,39.667ZM5.25,10.5C5.25,9.856 5.772,9.333 6.417,9.333L6.417,3.333C2.459,3.333 -0.75,6.542 -0.75,10.5L5.25,10.5ZM26.333,2.167L26.333,10.5L32.333,10.5L32.333,2.167L26.333,2.167ZM9.667,2.167L9.667,10.5L15.667,10.5L15.667,2.167L9.667,2.167ZM2.25,21.833L39.75,21.833L39.75,15.833L2.25,15.833L2.25,21.833Z" fill="#FFFFFF"/>
</svg>
