<svg width="56" height="64" viewBox="0 0 56 64" fill="none" xmlns="http://www.w3.org/2000/svg" xmlns:xlink="http://www.w3.org/1999/xlink">
<path d="M48,59C48,61.209 49.791,63 52,63C54.209,63 56,61.209 56,59L48,59ZM40,41L40,37L40,41ZM16,41L16,37L16,41ZM4,53L0,53L4,53ZM0,59C0,61.209 1.791,63 4,63C6.209,63 8,61.209 8,59L0,59ZM56,59L56,53L48,53L48,59L56,59ZM56,53C56,48.757 54.314,44.687 51.314,41.686L45.657,47.343C47.157,48.843 48,50.878 48,53L56,53ZM51.314,41.686C48.313,38.686 44.243,37 40,37L40,45C42.122,45 44.157,45.843 45.657,47.343L51.314,41.686ZM40,37L16,37L16,45L40,45L40,37ZM16,37C11.757,37 7.687,38.686 4.686,41.686L10.343,47.343C11.843,45.843 13.878,45 16,45L16,37ZM4.686,41.686C1.686,44.687 0,48.757 0,53L8,53C8,50.878 8.843,48.843 10.343,47.343L4.686,41.686ZM0,53L0,59L8,59L8,53L0,53ZM36,17C36,21.418 32.418,25 28,25L28,33C36.837,33 44,25.837 44,17L36,17ZM28,25C23.582,25 20,21.418 20,17L12,17C12,25.837 19.163,33 28,33L28,25ZM20,17C20,12.582 23.582,9 28,9L28,1C19.163,1 12,8.163 12,17L20,17ZM28,9C32.418,9 36,12.582 36,17L44,17C44,8.163 36.837,1 28,1L28,9Z" fill="#FFFFFF"/>
</svg>
