<svg width="44" height="48" viewBox="0 0 44 48" fill="none" xmlns="http://www.w3.org/2000/svg" xmlns:xlink="http://www.w3.org/1999/xlink">
<path d="M39.75,31.333L42.75,31.336L42.75,31.333L39.75,31.333ZM39.75,14.667L42.75,14.667L42.75,14.664L39.75,14.667ZM37.667,11.062L39.167,8.464L39.155,8.458L37.667,11.062ZM23.083,2.729L21.583,5.327L21.595,5.334L23.083,2.729ZM18.917,2.729L20.405,5.334L20.417,5.327L18.917,2.729ZM4.333,11.062L2.845,8.458L2.833,8.464L4.333,11.062ZM2.25,14.667L-0.75,14.664L-0.75,14.667L2.25,14.667ZM2.25,31.333L-0.75,31.333L-0.75,31.336L2.25,31.333ZM4.333,34.937L2.833,37.535L2.845,37.542L4.333,34.937ZM18.917,43.271L20.417,40.673L20.405,40.666L18.917,43.271ZM23.083,43.271L21.595,40.666L21.583,40.673L23.083,43.271ZM37.667,34.937L39.155,37.542L39.167,37.535L37.667,34.937ZM4.315,9.903C2.88,9.074 1.045,9.564 0.216,10.998C-0.614,12.432 -0.124,14.267 1.31,15.097L4.315,9.903ZM21,23.021L19.498,25.618C20.427,26.155 21.573,26.155 22.502,25.618L21,23.021ZM40.69,15.097C42.124,14.267 42.614,12.432 41.784,10.998C40.955,9.564 39.12,9.074 37.685,9.903L40.69,15.097ZM18,44C18,45.657 19.343,47 21,47C22.657,47 24,45.657 24,44L18,44ZM24,23C24,21.343 22.657,20 21,20C19.343,20 18,21.343 18,23L24,23ZM42.75,31.333L42.75,14.667L36.75,14.667L36.75,31.333L42.75,31.333ZM42.75,14.664C42.749,13.407 42.417,12.172 41.788,11.084L36.593,14.087C36.696,14.264 36.75,14.465 36.75,14.67L42.75,14.664ZM41.788,11.084C41.159,9.996 40.255,9.093 39.167,8.464L36.167,13.661C36.344,13.763 36.491,13.91 36.593,14.087L41.788,11.084ZM39.155,8.458L24.572,0.124L21.595,5.334L36.178,13.667L39.155,8.458ZM24.583,0.131C23.494,-0.498 22.258,-0.829 21,-0.829L21,5.171C21.205,5.171 21.406,5.225 21.583,5.327L24.583,0.131ZM21,-0.829C19.742,-0.829 18.506,-0.498 17.417,0.131L20.417,5.327C20.594,5.225 20.795,5.171 21,5.171L21,-0.829ZM17.428,0.124L2.845,8.458L5.822,13.667L20.405,5.334L17.428,0.124ZM2.833,8.464C1.745,9.093 0.841,9.996 0.212,11.084L5.407,14.087C5.509,13.91 5.656,13.763 5.833,13.661L2.833,8.464ZM0.212,11.084C-0.417,12.172 -0.749,13.407 -0.75,14.664L5.25,14.67C5.25,14.465 5.304,14.264 5.407,14.087L0.212,11.084ZM-0.75,14.667L-0.75,31.333L5.25,31.333L5.25,14.667L-0.75,14.667ZM-0.75,31.336C-0.749,32.593 -0.417,33.827 0.212,34.915L5.407,31.913C5.304,31.736 5.25,31.535 5.25,31.33L-0.75,31.336ZM0.212,34.915C0.841,36.004 1.745,36.907 2.833,37.535L5.833,32.339C5.656,32.237 5.509,32.09 5.407,31.913L0.212,34.915ZM2.845,37.542L17.428,45.875L20.405,40.666L5.822,32.333L2.845,37.542ZM17.417,45.869C18.506,46.498 19.742,46.829 21,46.829L21,40.829C20.795,40.829 20.594,40.775 20.417,40.673L17.417,45.869ZM21,46.829C22.258,46.829 23.494,46.498 24.583,45.869L21.583,40.673C21.406,40.775 21.205,40.829 21,40.829L21,46.829ZM24.572,45.875L39.155,37.542L36.178,32.333L21.595,40.666L24.572,45.875ZM39.167,37.535C40.255,36.907 41.159,36.004 41.788,34.915L36.593,31.913C36.491,32.09 36.344,32.237 36.167,32.339L39.167,37.535ZM41.788,34.915C42.417,33.827 42.749,32.593 42.75,31.336L36.75,31.33C36.75,31.535 36.696,31.736 36.593,31.913L41.788,34.915ZM1.31,15.097L19.498,25.618L22.502,20.424L4.315,9.903L1.31,15.097ZM22.502,25.618L40.69,15.097L37.685,9.903L19.498,20.424L22.502,25.618ZM24,44L24,23L18,23L18,44L24,44Z" fill="#FFFFFF"/>
</svg>
