<svg width="64" height="68" viewBox="0 0 64 68" fill="none" xmlns="http://www.w3.org/2000/svg" xmlns:xlink="http://www.w3.org/1999/xlink">
<path d="M32,4L32,0L32,4ZM14,22L10,22L14,22ZM5,49L2.781,45.672C1.315,46.65 0.661,48.472 1.172,50.159C1.682,51.846 3.237,53 5,53L5,49ZM59,49L59,53C60.763,53 62.318,51.846 62.828,50.159C63.339,48.472 62.685,46.65 61.219,45.672L59,49ZM40.65,63.007C41.758,61.096 41.108,58.648 39.197,57.54C37.286,56.432 34.838,57.082 33.73,58.993L40.65,63.007ZM30.27,58.993C29.162,57.082 26.714,56.432 24.803,57.54C22.892,58.648 22.242,61.096 23.35,63.007L30.27,58.993ZM54,22C54,16.165 51.682,10.569 47.556,6.444L41.899,12.101C44.525,14.726 46,18.287 46,22L54,22ZM47.556,6.444C43.431,2.318 37.835,0 32,0L32,8C35.713,8 39.274,9.475 41.899,12.101L47.556,6.444ZM32,0C26.165,0 20.569,2.318 16.444,6.444L22.1,12.101C24.726,9.475 28.287,8 32,8L32,0ZM16.444,6.444C12.318,10.569 10,16.165 10,22L18,22C18,18.287 19.475,14.726 22.1,12.101L16.444,6.444ZM10,22C10,31.911 7.882,37.989 5.988,41.46C5.036,43.205 4.119,44.333 3.502,44.983C3.193,45.31 2.957,45.519 2.826,45.628C2.761,45.683 2.721,45.712 2.712,45.719C2.708,45.722 2.711,45.72 2.723,45.712C2.728,45.708 2.736,45.703 2.746,45.696C2.75,45.692 2.756,45.689 2.762,45.685C2.765,45.683 2.768,45.681 2.771,45.679C2.773,45.677 2.775,45.676 2.776,45.675C2.779,45.674 2.781,45.672 5,49C7.219,52.328 7.221,52.326 7.224,52.325C7.225,52.324 7.228,52.322 7.23,52.321C7.234,52.318 7.237,52.316 7.241,52.313C7.25,52.307 7.258,52.302 7.267,52.295C7.286,52.283 7.306,52.268 7.329,52.252C7.374,52.221 7.428,52.182 7.49,52.136C7.613,52.044 7.767,51.925 7.947,51.774C8.309,51.473 8.776,51.05 9.31,50.485C10.381,49.355 11.714,47.67 13.012,45.29C15.618,40.511 18,33.089 18,22L10,22ZM5,53L59,53L59,45L5,45L5,53ZM59,49C61.219,45.672 61.221,45.674 61.224,45.675C61.225,45.676 61.227,45.677 61.229,45.679C61.232,45.681 61.235,45.683 61.238,45.685C61.244,45.689 61.25,45.692 61.254,45.696C61.264,45.703 61.272,45.708 61.277,45.712C61.289,45.72 61.292,45.722 61.288,45.719C61.279,45.712 61.239,45.683 61.174,45.628C61.043,45.519 60.807,45.31 60.498,44.983C59.881,44.333 58.964,43.205 58.012,41.46C56.118,37.989 54,31.911 54,22L46,22C46,33.089 48.382,40.511 50.988,45.29C52.286,47.67 53.619,49.355 54.69,50.485C55.224,51.05 55.691,51.473 56.053,51.774C56.233,51.925 56.387,52.044 56.51,52.136C56.572,52.182 56.626,52.221 56.671,52.252C56.694,52.268 56.714,52.283 56.733,52.295C56.742,52.302 56.75,52.307 56.759,52.313C56.763,52.316 56.767,52.318 56.77,52.321C56.772,52.322 56.775,52.324 56.776,52.325C56.779,52.326 56.781,52.328 59,49ZM33.73,58.993C33.554,59.296 33.302,59.548 32.998,59.722L36.991,66.655C38.509,65.78 39.771,64.522 40.65,63.007L33.73,58.993ZM32.998,59.722C32.695,59.897 32.35,59.989 32,59.989L32,67.989C33.752,67.989 35.473,67.529 36.991,66.655L32.998,59.722ZM32,59.989C31.65,59.989 31.305,59.897 31.002,59.722L27.009,66.655C28.527,67.529 30.248,67.989 32,67.989L32,59.989ZM31.002,59.722C30.698,59.548 30.446,59.296 30.27,58.993L23.35,63.007C24.229,64.522 25.491,65.78 27.009,66.655L31.002,59.722Z" fill="#FFFFFF"/>
</svg>
