<svg width="56" height="62" viewBox="0 0 56 62" fill="none" xmlns="http://www.w3.org/2000/svg" xmlns:xlink="http://www.w3.org/1999/xlink">
<path d="M48,57C48,59.209 49.791,61 52,61C54.209,61 56,59.209 56,57L48,57ZM40,39L40,35L40,39ZM16,39L16,35L16,39ZM4,51L0,51L4,51ZM0,57C0,59.209 1.791,61 4,61C6.209,61 8,59.209 8,57L0,57ZM56,57L56,51L48,51L48,57L56,57ZM56,51C56,46.757 54.314,42.687 51.314,39.686L45.657,45.343C47.157,46.843 48,48.878 48,51L56,51ZM51.314,39.686C48.313,36.686 44.243,35 40,35L40,43C42.122,43 44.157,43.843 45.657,45.343L51.314,39.686ZM40,35L16,35L16,43L40,43L40,35ZM16,35C11.757,35 7.687,36.686 4.686,39.686L10.343,45.343C11.843,43.843 13.878,43 16,43L16,35ZM4.686,39.686C1.686,42.687 0,46.757 0,51L8,51C8,48.878 8.843,46.843 10.343,45.343L4.686,39.686ZM0,51L0,57L8,57L8,51L0,51ZM36,15C36,19.418 32.418,23 28,23L28,31C36.837,31 44,23.837 44,15L36,15ZM28,23C23.582,23 20,19.418 20,15L12,15C12,23.837 19.163,31 28,31L28,23ZM20,15C20,10.582 23.582,7 28,7L28,-1C19.163,-1 12,6.163 12,15L20,15ZM28,7C32.418,7 36,10.582 36,15L44,15C44,6.163 36.837,-1 28,-1L28,7Z" fill="#FFFFFF"/>
</svg>
