<svg width="44" height="44" viewBox="0 0 44 44" fill="none" xmlns="http://www.w3.org/2000/svg" xmlns:xlink="http://www.w3.org/1999/xlink">
<path d="M39.75,19.958L36.75,19.958L36.75,19.966L39.75,19.958ZM37.875,27.875L35.197,26.522L35.191,26.534L37.875,27.875ZM22.042,37.667L22.041,34.667L22.034,34.667L22.042,37.667ZM14.125,35.792L15.478,33.114C14.764,32.753 13.935,32.693 13.176,32.946L14.125,35.792ZM2.25,39.75L-0.596,38.801C-0.955,39.879 -0.675,41.068 0.129,41.871C0.932,42.675 2.121,42.955 3.199,42.596L2.25,39.75ZM6.208,27.875L9.054,28.824C9.307,28.065 9.247,27.236 8.886,26.523L6.208,27.875ZM4.333,19.958L7.333,19.966L7.333,19.96L4.333,19.958ZM14.125,4.125L15.466,6.809L15.478,6.803L14.125,4.125ZM22.042,2.25L22.034,5.25L22.042,5.25L22.042,2.25ZM23.083,2.25L23.249,-0.745C23.194,-0.748 23.138,-0.75 23.083,-0.75L23.083,2.25ZM39.75,18.917L42.75,18.917C42.75,18.862 42.748,18.807 42.745,18.751L39.75,18.917ZM36.75,19.966C36.756,22.243 36.224,24.49 35.197,26.523L40.553,29.228C42.006,26.351 42.758,23.173 42.75,19.951L36.75,19.966ZM35.191,26.534C33.971,28.977 32.094,31.031 29.771,32.468L32.927,37.571C36.197,35.549 38.84,32.656 40.559,29.216L35.191,26.534ZM29.771,32.468C27.448,33.904 24.771,34.666 22.041,34.667L22.043,40.667C25.888,40.665 29.657,39.593 32.927,37.571L29.771,32.468ZM22.034,34.667C19.757,34.673 17.51,34.141 15.478,33.114L12.772,38.47C15.649,39.922 18.827,40.675 22.049,40.667L22.034,34.667ZM13.176,32.946L1.301,36.904L3.199,42.596L15.074,38.638L13.176,32.946ZM5.096,40.699L9.054,28.824L3.362,26.926L-0.596,38.801L5.096,40.699ZM8.886,26.523C7.859,24.49 7.327,22.243 7.333,19.966L1.333,19.951C1.325,23.173 2.078,26.351 3.531,29.228L8.886,26.523ZM7.333,19.96C7.334,17.229 8.096,14.552 9.532,12.229L4.429,9.073C2.407,12.344 1.335,16.112 1.333,19.957L7.333,19.96ZM9.532,12.229C10.969,9.906 13.023,8.029 15.466,6.809L12.784,1.442C9.344,3.161 6.452,5.803 4.429,9.073L9.532,12.229ZM15.478,6.803C17.51,5.776 19.757,5.244 22.034,5.25L22.049,-0.75C18.827,-0.758 15.649,-0.006 12.772,1.447L15.478,6.803ZM22.042,5.25L23.083,5.25L23.083,-0.75L22.042,-0.75L22.042,5.25ZM22.918,5.245C26.523,5.444 29.928,6.966 32.481,9.519L36.724,5.276C33.126,1.679 28.328,-0.465 23.249,-0.745L22.918,5.245ZM32.481,9.519C35.034,12.072 36.556,15.477 36.755,19.082L42.745,18.751C42.465,13.672 40.321,8.874 36.724,5.276L32.481,9.519ZM36.75,18.917L36.75,19.958L42.75,19.958L42.75,18.917L36.75,18.917Z" fill="#FFFFFF"/>
</svg>
