<svg width="44" height="44" viewBox="0 0 44 44" fill="none" xmlns="http://www.w3.org/2000/svg" xmlns:xlink="http://www.w3.org/1999/xlink">
<path d="M11.5,2.25C11.5,0.593 10.157,-0.75 8.5,-0.75C6.843,-0.75 5.5,0.593 5.5,2.25L11.5,2.25ZM5.5,2.25L5.5,27.25L11.5,27.25L11.5,2.25L5.5,2.25ZM36.75,8.5C36.75,10.295 35.295,11.75 33.5,11.75L33.5,17.75C38.609,17.75 42.75,13.609 42.75,8.5L36.75,8.5ZM33.5,11.75C31.705,11.75 30.25,10.295 30.25,8.5L24.25,8.5C24.25,13.609 28.391,17.75 33.5,17.75L33.5,11.75ZM30.25,8.5C30.25,6.705 31.705,5.25 33.5,5.25L33.5,-0.75C28.391,-0.75 24.25,3.391 24.25,8.5L30.25,8.5ZM33.5,5.25C35.295,5.25 36.75,6.705 36.75,8.5L42.75,8.5C42.75,3.391 38.609,-0.75 33.5,-0.75L33.5,5.25ZM11.75,33.5C11.75,35.295 10.295,36.75 8.5,36.75L8.5,42.75C13.609,42.75 17.75,38.609 17.75,33.5L11.75,33.5ZM8.5,36.75C6.705,36.75 5.25,35.295 5.25,33.5L-0.75,33.5C-0.75,38.609 3.391,42.75 8.5,42.75L8.5,36.75ZM5.25,33.5C5.25,31.705 6.705,30.25 8.5,30.25L8.5,24.25C3.391,24.25 -0.75,28.391 -0.75,33.5L5.25,33.5ZM8.5,30.25C10.295,30.25 11.75,31.705 11.75,33.5L17.75,33.5C17.75,28.391 13.609,24.25 8.5,24.25L8.5,30.25ZM30.5,14.75C30.5,18.927 28.841,22.933 25.887,25.887L30.13,30.13C34.208,26.051 36.5,20.518 36.5,14.75L30.5,14.75ZM25.887,25.887C22.933,28.841 18.927,30.5 14.75,30.5L14.75,36.5C20.518,36.5 26.051,34.208 30.13,30.13L25.887,25.887Z" fill="#FFFFFF"/>
</svg>
