<svg width="44" height="48" viewBox="0 0 44 48" fill="none" xmlns="http://www.w3.org/2000/svg" xmlns:xlink="http://www.w3.org/1999/xlink">
<path d="M42.75,23C42.75,21.343 41.407,20 39.75,20C38.093,20 36.75,21.343 36.75,23L42.75,23ZM5.25,23C5.25,21.343 3.907,20 2.25,20C0.593,20 -0.75,21.343 -0.75,23L5.25,23ZM36.75,8.417C36.75,7.966 37.026,8.015 36.42,8.493C35.847,8.945 34.831,9.483 33.31,9.99C30.297,10.994 25.945,11.667 21,11.667L21,17.667C26.41,17.667 31.433,16.94 35.207,15.682C37.078,15.058 38.809,14.25 40.133,13.206C41.424,12.189 42.75,10.593 42.75,8.417L36.75,8.417ZM21,11.667C16.055,11.667 11.703,10.994 8.69,9.99C7.169,9.483 6.153,8.945 5.58,8.493C4.974,8.015 5.25,7.966 5.25,8.417L-0.75,8.417C-0.75,10.593 0.576,12.189 1.867,13.206C3.191,14.25 4.922,15.058 6.793,15.682C10.567,16.94 15.59,17.667 21,17.667L21,11.667ZM5.25,8.417C5.25,8.867 4.974,8.818 5.58,8.34C6.153,7.889 7.169,7.351 8.69,6.843C11.703,5.839 16.055,5.167 21,5.167L21,-0.833C15.59,-0.833 10.567,-0.107 6.793,1.151C4.922,1.775 3.191,2.584 1.867,3.628C0.576,4.645 -0.75,6.241 -0.75,8.417L5.25,8.417ZM21,5.167C25.945,5.167 30.297,5.839 33.31,6.843C34.831,7.351 35.847,7.889 36.42,8.34C37.026,8.818 36.75,8.867 36.75,8.417L42.75,8.417C42.75,6.241 41.424,4.645 40.133,3.628C38.809,2.584 37.078,1.775 35.207,1.151C31.433,-0.107 26.41,-0.833 21,-0.833L21,5.167ZM36.75,23C36.75,22.562 37.019,22.611 36.422,23.084C35.855,23.534 34.848,24.07 33.331,24.576C30.329,25.579 25.978,26.25 21,26.25L21,32.25C26.439,32.25 31.463,31.526 35.231,30.268C37.1,29.644 38.827,28.834 40.148,27.787C41.44,26.764 42.75,25.168 42.75,23L36.75,23ZM21,26.25C16.022,26.25 11.671,25.579 8.669,24.576C7.152,24.07 6.145,23.534 5.578,23.084C4.981,22.611 5.25,22.562 5.25,23L-0.75,23C-0.75,25.168 0.56,26.764 1.852,27.787C3.173,28.834 4.9,29.644 6.769,30.268C10.537,31.526 15.561,32.25 21,32.25L21,26.25ZM-0.75,8.417L-0.75,37.583L5.25,37.583L5.25,8.417L-0.75,8.417ZM-0.75,37.583C-0.75,39.751 0.56,41.347 1.852,42.37C3.173,43.417 4.9,44.227 6.769,44.851C10.537,46.109 15.561,46.833 21,46.833L21,40.833C16.022,40.833 11.671,40.162 8.669,39.16C7.152,38.653 6.145,38.117 5.578,37.668C4.981,37.195 5.25,37.145 5.25,37.583L-0.75,37.583ZM21,46.833C26.439,46.833 31.463,46.109 35.231,44.851C37.1,44.227 38.827,43.417 40.148,42.37C41.44,41.347 42.75,39.751 42.75,37.583L36.75,37.583C36.75,37.145 37.019,37.195 36.422,37.668C35.855,38.117 34.848,38.653 33.331,39.16C30.329,40.162 25.978,40.833 21,40.833L21,46.833ZM42.75,37.583L42.75,8.417L36.75,8.417L36.75,37.583L42.75,37.583Z" fill="#FFFFFF"/>
</svg>
