<svg width="44" height="44" viewBox="0 0 44 44" fill="none" xmlns="http://www.w3.org/2000/svg" xmlns:xlink="http://www.w3.org/1999/xlink">
<path d="M6.417,2.25L6.417,-0.75L6.417,2.25ZM2.25,6.417L-0.75,6.417L2.25,6.417ZM35.583,2.25L35.583,-0.75L35.583,2.25ZM2.25,35.583L-0.75,35.583L2.25,35.583ZM14.75,-0.75L6.417,-0.75L6.417,5.25L14.75,5.25L14.75,-0.75ZM6.417,-0.75C4.516,-0.75 2.693,0.005 1.349,1.349L5.592,5.592C5.81,5.373 6.107,5.25 6.417,5.25L6.417,-0.75ZM1.349,1.349C0.005,2.693 -0.75,4.516 -0.75,6.417L5.25,6.417C5.25,6.107 5.373,5.811 5.592,5.592L1.349,1.349ZM-0.75,6.417L-0.75,14.75L5.25,14.75L5.25,6.417L-0.75,6.417ZM14.75,5.25L35.583,5.25L35.583,-0.75L14.75,-0.75L14.75,5.25ZM35.583,5.25C35.893,5.25 36.189,5.373 36.408,5.592L40.651,1.349C39.307,0.005 37.484,-0.75 35.583,-0.75L35.583,5.25ZM36.408,5.592C36.627,5.811 36.75,6.107 36.75,6.417L42.75,6.417C42.75,4.516 41.995,2.693 40.651,1.349L36.408,5.592ZM36.75,6.417L36.75,14.75L42.75,14.75L42.75,6.417L36.75,6.417ZM11.75,2.25L11.75,39.75L17.75,39.75L17.75,2.25L11.75,2.25ZM14.75,42.75L35.583,42.75L35.583,36.75L14.75,36.75L14.75,42.75ZM35.583,42.75C37.484,42.75 39.307,41.995 40.651,40.651L36.408,36.408C36.189,36.627 35.893,36.75 35.583,36.75L35.583,42.75ZM40.651,40.651C41.995,39.307 42.75,37.484 42.75,35.583L36.75,35.583C36.75,35.893 36.627,36.189 36.408,36.408L40.651,40.651ZM42.75,35.583L42.75,14.75L36.75,14.75L36.75,35.583L42.75,35.583ZM14.75,36.75L6.417,36.75L6.417,42.75L14.75,42.75L14.75,36.75ZM6.417,36.75C6.107,36.75 5.81,36.627 5.592,36.408L1.349,40.651C2.693,41.995 4.516,42.75 6.417,42.75L6.417,36.75ZM5.592,36.408C5.373,36.189 5.25,35.893 5.25,35.583L-0.75,35.583C-0.75,37.484 0.005,39.307 1.349,40.651L5.592,36.408ZM5.25,35.583L5.25,14.75L-0.75,14.75L-0.75,35.583L5.25,35.583ZM2.25,17.75L39.75,17.75L39.75,11.75L2.25,11.75L2.25,17.75Z" fill="#FFFFFF"/>
</svg>
