<svg width="50" height="50" viewBox="0 0 50 50" fill="none" xmlns="http://www.w3.org/2000/svg" xmlns:xlink="http://www.w3.org/1999/xlink">
<path d="M39.063,1.563L19.705,20.919C18.383,20.517 17.008,20.313 15.625,20.313C7.859,20.313 1.563,26.609 1.563,34.375C1.563,42.142 7.859,48.438 15.625,48.438C23.392,48.438 29.688,42.142 29.688,34.375C29.688,32.956 29.473,31.586 29.081,30.294L32.813,26.563L32.813,23.438L35.938,23.438L48.438,10.938L48.438,1.563L39.063,1.563ZM46.875,10.29L35.291,21.875L31.25,21.875L31.25,25.915L27.976,29.188L27.313,29.851L27.585,30.747C27.944,31.928 28.125,33.149 28.125,34.375C28.125,41.267 22.517,46.875 15.625,46.875C8.733,46.875 3.125,41.267 3.125,34.375C3.125,27.483 8.733,21.875 15.625,21.875C16.854,21.875 18.076,22.057 19.252,22.414L20.148,22.686L20.81,22.024L39.709,3.125L46.875,3.125L46.875,10.29Z" fill="#000000" fill-opacity="0.3"/>
<circle cx="12.5" cy="37.5" r="3.125" fill="#000000" fill-opacity="0.3"/>
<path d="M32.26,16.635L41.635,7.26L42.74,8.365L33.365,17.74L32.26,16.635Z" fill="#000000" fill-opacity="0.3"/>
</svg>
