<svg width="50" height="50" viewBox="0 0 50 50" fill="none" xmlns="http://www.w3.org/2000/svg" xmlns:xlink="http://www.w3.org/1999/xlink">
<path d="M25,22.222C27.825,22.222 30.587,21.571 32.937,20.35C35.286,19.129 37.117,17.393 38.198,15.363C39.28,13.333 39.562,11.099 39.011,8.943C38.46,6.788 37.099,4.808 35.102,3.254C33.104,1.7 30.558,0.642 27.787,0.214C25.016,-0.215 22.143,0.005 19.533,0.846C16.923,1.687 14.692,3.111 13.122,4.938C11.552,6.765 10.714,8.914 10.714,11.111C10.714,14.058 12.219,16.884 14.898,18.968C17.578,21.052 21.211,22.222 25,22.222ZM46.429,50C47.376,50 48.284,49.707 48.954,49.186C49.624,48.665 50,47.959 50,47.222C50,42.065 47.366,37.119 42.678,33.473C37.989,29.826 31.63,27.778 25,27.778C18.37,27.778 12.011,29.826 7.322,33.473C2.634,37.119 0,42.065 0,47.222C0,47.959 0.376,48.665 1.046,49.186C1.716,49.707 2.624,50 3.571,50L46.429,50Z" fill="#000000" fill-opacity="0.3"/>
</svg>
