<svg width="790" height="150" viewBox="0 0 790 150" fill="none" xmlns="http://www.w3.org/2000/svg" xmlns:xlink="http://www.w3.org/1999/xlink">
<g filter="url(#filter150_359)">
<path d="M774,2L16,2C8.268,2 2,8.268 2,16L2,134C2,141.732 8.268,148 16,148L774,148C781.732,148 788,141.732 788,134L788,16C788,8.268 781.732,2 774,2ZM16,0C7.163,0 0,7.163 0,16L0,134C0,142.837 7.163,150 16,150L774,150C782.836,150 790,142.837 790,134L790,16C790,7.163 782.836,0 774,0L16,0Z" clip-rule="evenodd" fill-rule="evenodd" fill="#FFFFFF"/>
</g>
<defs>
<filter id="filter150_359" x="-4" y="-4" width="403" height="83" filterUnits="userSpaceOnUse" color-interpolation-filters="sRGB">
<feFlood flood-opacity="0" result="BackgroundImageFix"/>
<feColorMatrix in="SourceAlpha" type="matrix" values="0 0 0 0 0 0 0 0 0 0 0 0 0 0 0 0 0 0 127 0" result="hardAlpha"/>
<feMorphology radius="0" operator="dilate" in="SourceAlpha" result="0dropshadow"/>
<feOffset dx="0" dy="4"/>
<feGaussianBlur stdDeviation="2"/>
<feComposite in2="hardAlpha" operator="out"/>
<feColorMatrix type="matrix" values="0 0 0 0 0 0 0 0 0 0 0 0 0 0 0 0 0 0 0.25 0"/>
<feBlend mode="normal" in2="BackgroundImageFix" result="0dropshadow"/>
<feBlend mode="normal" in="SourceGraphic" in2="0dropshadow" result="shape"/>
</filter>
</defs>
</svg>
