<svg width="30" height="20" viewBox="0 0 30 20" fill="none" xmlns="http://www.w3.org/2000/svg" xmlns:xlink="http://www.w3.org/1999/xlink">
<path d="M27.885,5.443C28.459,4.892 28.401,3.969 27.718,3.543C23.635,0.996 18.869,-0.357 14,-0.349C8.941,-0.349 4.228,1.079 0.282,3.543C0.124,3.645 -0.008,3.78 -0.104,3.938C-0.201,4.095 -0.259,4.272 -0.275,4.454C-0.291,4.636 -0.264,4.82 -0.197,4.991C-0.13,5.162 -0.023,5.316 0.115,5.443C0.341,5.655 0.635,5.787 0.95,5.817C1.265,5.847 1.581,5.773 1.846,5.608C5.473,3.377 9.692,2.194 14,2.201C18.308,2.194 22.527,3.377 26.154,5.608C26.698,5.945 27.429,5.884 27.885,5.443ZM22.089,11.01C22.689,10.434 22.58,9.467 21.823,9.097C19.4,7.913 16.719,7.298 14,7.302C11.185,7.302 8.524,7.95 6.177,9.097C5.42,9.467 5.311,10.434 5.911,11.01L5.951,11.048C6.376,11.456 7.035,11.533 7.574,11.278C9.574,10.336 11.773,9.849 14,9.852C16.305,9.852 18.488,10.365 20.426,11.28C20.965,11.535 21.621,11.459 22.049,11.048L22.089,11.01ZM16.815,16.075C17.335,15.575 17.341,14.749 16.709,14.392C15.889,13.923 14.953,13.677 14,13.678C13.047,13.677 12.111,13.923 11.291,14.392C10.659,14.749 10.665,15.575 11.185,16.075L13.06,17.875C13.183,17.994 13.33,18.088 13.491,18.153C13.652,18.217 13.825,18.25 14,18.25C14.175,18.25 14.348,18.217 14.509,18.153C14.67,18.088 14.817,17.994 14.94,17.875L16.817,16.072L16.815,16.075Z" fill="#FFFFFF"/>
</svg>
