<svg width="188" height="188" viewBox="0 0 188 188" fill="none" xmlns="http://www.w3.org/2000/svg" xmlns:xlink="http://www.w3.org/1999/xlink">
<path d="M150.25,0.25L72.822,77.675C67.53,76.068 62.03,75.251 56.5,75.25C25.434,75.25 0.25,100.434 0.25,131.5C0.25,162.566 25.434,187.75 56.5,187.75C87.566,187.75 112.75,162.566 112.75,131.5C112.75,125.822 111.891,120.344 110.322,115.175L125.25,100.25L125.25,87.75L137.75,87.75L187.75,37.75L187.75,0.25L150.25,0.25ZM181.5,35.159L135.163,81.5L119,81.5L119,97.659L105.903,110.753L103.253,113.403L104.341,116.987C105.775,121.712 106.5,126.594 106.5,131.5C106.5,159.069 84.069,181.5 56.5,181.5C28.931,181.5 6.5,159.069 6.5,131.5C6.5,103.931 28.931,81.5 56.5,81.5C61.416,81.502 66.305,82.228 71.009,83.656L74.591,84.744L77.241,82.094L152.837,6.5L181.5,6.5L181.5,35.159Z" fill="#000000"/>
</svg>
