<svg width="704" height="706" viewBox="0 0 704 706" fill="none" xmlns="http://www.w3.org/2000/svg" xmlns:xlink="http://www.w3.org/1999/xlink">
<path d="M671.801,511C642.601,481 559.601,424.8 505.201,424.8C492.601,424.8 481.601,427.6 472.601,433.4C446.001,450.4 424.801,463.6 414.601,463.6C409.001,463.6 403.001,458.6 389.801,447.2L387.601,445.2C351.001,413.4 343.201,405.2 329.001,390.4L325.401,386.6C322.801,384 320.601,381.6 318.401,379.4C306.001,366.6 297.001,357.4 265.201,321.4L263.801,319.8C248.601,302.6 238.601,291.4 238.001,283.2C237.401,275.2 244.401,262.2 262.201,238C283.801,208.8 284.601,172.8 264.801,131C249.001,98 223.201,66.4 200.401,38.6L198.4,36.2C178.8,12.2 156,0.2 130.6,0.2C102.4,0.2 79,15.4 66.6,23.4C65.6,24 64.6,24.8 63.6,25.4C35.8,43 15.6,67.2 8,91.8C-3.4,128.8 -11,176.8 43.6,276.6C90.8,363 133.6,421 201.601,490.8C265.601,556.4 294.001,577.6 357.601,623.6C428.401,674.8 496.401,704.2 544.001,704.2C588.201,704.2 623.001,704.2 672.601,644.4C724.601,581.6 703.001,543.2 671.801,511ZM648.801,622.8C608.801,671.2 585.801,671.2 544.201,671.2C503.601,671.2 440.601,643.2 375.801,596.6C313.801,551.8 286.201,531.2 224.001,467.4C158.2,400 116.8,343.8 71.2,260.4C23,172.2 28.4,133.6 38.2,101.8C43.4,84.8 59,66.6 80.2,53.4C81.2,52.8 82.2,52 83.4,51.4C94,44.6 111.6,33.2 130.8,33.2C146.8,33.2 161,41.2 174.6,57.8L176.6,60.2C227.601,122.6 267.401,177.8 237.401,218.6C216.201,247.2 205.001,266.6 206.801,286.6C208.401,306 221.401,320.6 241.001,342.6L242.401,344.2C274.601,380.6 283.801,390.2 296.601,403.2C298.801,405.4 301.001,407.8 303.601,410.4L307.201,414.2C322.001,429.6 330.201,438 367.801,471L370.001,473C386.001,487 397.801,497.2 415.001,497.2C432.801,497.2 452.401,486 489.601,462.2C493.401,459.8 498.801,458.4 505.601,458.4C549.001,458.4 623.801,508 650.001,535C674.001,559.4 686.001,577.8 648.801,622.8Z" fill="#000000"/>
</svg>
