<svg width="50" height="50" viewBox="0 0 50 50" fill="none" xmlns="http://www.w3.org/2000/svg" xmlns:xlink="http://www.w3.org/1999/xlink">
<path d="M0,50L23.684,38.158L23.684,31.579L26.316,31.579L26.316,38.158L50,50L25,0L0,50ZM25.934,29.882C25.718,30.102 25.431,30.241 25.124,30.274C24.816,30.307 24.507,30.232 24.249,30.062C23.99,29.892 23.799,29.638 23.707,29.343C23.616,29.047 23.629,28.729 23.746,28.443C23.863,28.157 24.076,27.92 24.348,27.773C24.62,27.626 24.935,27.579 25.239,27.638C25.542,27.698 25.815,27.861 26.012,28.1C26.208,28.339 26.316,28.638 26.316,28.947C26.31,29.296 26.174,29.629 25.934,29.882ZM26.316,25C26.314,25.172 26.278,25.342 26.211,25.5C26.147,25.661 26.053,25.808 25.934,25.934C25.75,26.12 25.515,26.246 25.259,26.298C25.003,26.349 24.737,26.323 24.495,26.223C24.254,26.123 24.048,25.953 23.904,25.735C23.759,25.517 23.683,25.261 23.684,25C23.686,24.651 23.823,24.316 24.066,24.066C24.32,23.831 24.654,23.701 25,23.701C25.346,23.701 25.68,23.831 25.934,24.066C26.176,24.317 26.313,24.651 26.316,25Z" fill="#FFFFFF"/>
</svg>
