<svg width="50" height="50" viewBox="0 0 50 50" fill="none" xmlns="http://www.w3.org/2000/svg" xmlns:xlink="http://www.w3.org/1999/xlink">
<path d="M2.419,22.345L19.926,22.345C20.567,22.345 21.183,22.09 21.637,21.637C22.09,21.183 22.345,20.567 22.345,19.926L22.345,2.419C22.345,1.778 22.09,1.162 21.637,0.709C21.183,0.255 20.567,0 19.926,0L2.419,0C1.778,0 1.162,0.255 0.709,0.709C0.255,1.162 0,1.778 0,2.419L0,19.926C0,20.567 0.255,21.183 0.709,21.637C1.162,22.09 1.778,22.345 2.419,22.345ZM4.839,4.839L17.506,4.839L17.506,17.506L4.839,17.506L4.839,4.839ZM50,2.419C50,1.778 49.745,1.162 49.291,0.709C48.838,0.255 48.222,0 47.581,0L30.074,0C29.433,0 28.817,0.255 28.363,0.709C27.91,1.162 27.655,1.778 27.655,2.419L27.655,19.926C27.655,20.567 27.91,21.183 28.363,21.637C28.817,22.09 29.433,22.345 30.074,22.345L47.581,22.345C48.222,22.345 48.838,22.09 49.291,21.637C49.745,21.183 50,20.567 50,19.926L50,2.419ZM45.161,17.506L32.494,17.506L32.494,4.839L45.161,4.839L45.161,17.506ZM2.419,50L19.926,50C20.567,50 21.183,49.745 21.637,49.291C22.09,48.838 22.345,48.222 22.345,47.581L22.345,30.074C22.345,29.433 22.09,28.817 21.637,28.363C21.183,27.91 20.567,27.655 19.926,27.655L2.419,27.655C1.778,27.655 1.162,27.91 0.709,28.363C0.255,28.817 0,29.433 0,30.074L0,47.581C0,48.222 0.255,48.838 0.709,49.291C1.162,49.745 1.778,50 2.419,50ZM4.839,32.494L17.506,32.494L17.506,45.161L4.839,45.161L4.839,32.494ZM38.826,27.655C32.665,27.655 27.655,32.666 27.655,38.827C27.655,44.989 32.666,50 38.826,50C44.987,50 50,44.989 50,38.827C50,32.666 44.989,27.655 38.826,27.655ZM38.826,45.161C35.334,45.161 32.494,42.319 32.494,38.827C32.494,35.335 35.334,32.492 38.826,32.492C42.319,32.492 45.161,35.334 45.161,38.827C45.161,42.321 42.319,45.161 38.826,45.161Z" fill="#FFFFFF"/>
</svg>
