<svg width="50" height="50" viewBox="0 0 50 50" fill="none" xmlns="http://www.w3.org/2000/svg" xmlns:xlink="http://www.w3.org/1999/xlink">
<path d="M47.717,36.278C45.644,34.148 39.749,30.156 35.886,30.156C34.992,30.156 34.21,30.355 33.571,30.767C31.682,31.974 30.177,32.912 29.452,32.912C29.055,32.912 28.629,32.557 27.691,31.747L27.535,31.605C24.936,29.347 24.382,28.764 23.374,27.713L23.118,27.443C22.933,27.259 22.777,27.088 22.621,26.932C21.74,26.023 21.101,25.369 18.843,22.812L18.744,22.699C17.664,21.477 16.954,20.682 16.912,20.099C16.869,19.531 17.366,18.608 18.63,16.889C20.164,14.815 20.221,12.259 18.815,9.29C17.693,6.946 15.861,4.702 14.241,2.727L14.099,2.557C12.708,0.852 11.088,0 9.285,0C7.282,0 5.62,1.08 4.74,1.648C4.669,1.69 4.598,1.747 4.527,1.79C2.553,3.04 1.118,4.759 0.578,6.506C-0.231,9.134 -0.771,12.543 3.107,19.631C6.458,25.767 9.498,29.886 14.327,34.844C18.871,39.503 20.888,41.009 25.405,44.276C30.432,47.912 35.261,50 38.642,50C41.78,50 44.252,50 47.774,45.753C51.467,41.293 49.933,38.565 47.717,36.278ZM46.084,44.219C43.243,47.656 41.61,47.656 38.656,47.656C35.773,47.656 31.299,45.668 26.697,42.358C22.294,39.176 20.334,37.713 15.917,33.182C11.245,28.395 8.305,24.403 5.066,18.48C1.644,12.216 2.027,9.474 2.723,7.216C3.092,6.009 4.2,4.716 5.706,3.778C5.777,3.736 5.848,3.679 5.933,3.636C6.686,3.153 7.935,2.344 9.299,2.344C10.435,2.344 11.443,2.912 12.409,4.091L12.551,4.261C16.173,8.693 18.999,12.614 16.869,15.511C15.363,17.543 14.568,18.92 14.696,20.341C14.81,21.719 15.733,22.756 17.125,24.318L17.224,24.432C19.511,27.017 20.164,27.699 21.073,28.622C21.229,28.778 21.385,28.949 21.57,29.134L21.826,29.403C22.877,30.497 23.459,31.094 26.129,33.438L26.285,33.58C27.421,34.574 28.259,35.298 29.481,35.298C30.745,35.298 32.137,34.503 34.778,32.812C35.048,32.642 35.432,32.543 35.915,32.543C38.997,32.543 44.308,36.065 46.169,37.983C47.873,39.716 48.726,41.023 46.084,44.219Z" fill="#000000" fill-opacity="0.3"/>
</svg>
