<svg width="138" height="138" viewBox="0 0 138 138" fill="none" xmlns="http://www.w3.org/2000/svg" xmlns:xlink="http://www.w3.org/1999/xlink">
<path d="M131.239,99.766C125.536,93.906 109.325,82.93 98.7,82.93C96.239,82.93 94.091,83.477 92.333,84.609C87.138,87.93 82.997,90.508 81.005,90.508C79.911,90.508 78.739,89.531 76.161,87.305L75.732,86.914C68.583,80.703 67.06,79.102 64.286,76.211L63.583,75.469C63.075,74.961 62.646,74.492 62.216,74.062C59.794,71.562 58.036,69.766 51.825,62.734L51.552,62.422C48.583,59.062 46.63,56.875 46.513,55.273C46.396,53.711 47.763,51.172 51.239,46.445C55.458,40.742 55.614,33.711 51.747,25.547C48.661,19.102 43.622,12.93 39.169,7.5L38.778,7.031C34.95,2.344 30.497,0 25.536,0C20.028,0 15.458,2.969 13.036,4.531C12.841,4.648 12.646,4.805 12.45,4.922C7.021,8.359 3.075,13.086 1.591,17.891C-0.636,25.117 -2.12,34.492 8.544,53.984C17.763,70.859 26.122,82.187 39.403,95.82C51.903,108.633 57.45,112.773 69.872,121.758C83.7,131.758 96.982,137.5 106.278,137.5C114.911,137.5 121.708,137.5 131.396,125.82C141.552,113.555 137.333,106.055 131.239,99.766ZM126.747,121.602C118.935,131.055 114.442,131.055 106.317,131.055C98.388,131.055 86.083,125.586 73.427,116.484C61.317,107.734 55.927,103.711 43.778,91.25C30.927,78.086 22.841,67.109 13.935,50.82C4.521,33.594 5.575,26.055 7.489,19.844C8.505,16.523 11.552,12.969 15.692,10.391C15.888,10.273 16.083,10.117 16.317,10C18.388,8.672 21.825,6.445 25.575,6.445C28.7,6.445 31.474,8.008 34.13,11.25L34.521,11.719C44.482,23.906 52.255,34.688 46.396,42.656C42.255,48.242 40.067,52.031 40.419,55.938C40.732,59.727 43.271,62.578 47.099,66.875L47.372,67.188C53.661,74.297 55.458,76.172 57.958,78.711C58.388,79.141 58.817,79.609 59.325,80.117L60.028,80.859C62.919,83.867 64.521,85.508 71.864,91.953L72.294,92.344C75.419,95.078 77.724,97.07 81.083,97.07C84.56,97.07 88.388,94.883 95.653,90.234C96.396,89.766 97.45,89.492 98.778,89.492C107.255,89.492 121.864,99.18 126.982,104.453C131.669,109.219 134.013,112.812 126.747,121.602Z" fill="#000000"/>
</svg>
