<svg width="40" height="10" viewBox="0 0 40 10" fill="none" xmlns="http://www.w3.org/2000/svg" xmlns:xlink="http://www.w3.org/1999/xlink">
<path d="M39.611,7.944C39.744,7.82 39.848,7.668 39.914,7.502C39.981,7.335 40.009,7.156 39.997,6.977C39.985,6.799 39.933,6.625 39.844,6.468C39.755,6.311 39.632,6.174 39.483,6.067C33.822,2.114 27,-0.011 20,0C13,-0.011 6.178,2.113 0.517,6.067C0.368,6.174 0.245,6.311 0.156,6.468C0.067,6.625 0.015,6.799 0.003,6.977C-0.009,7.156 0.019,7.335 0.086,7.502C0.152,7.668 0.256,7.82 0.389,7.944C0.622,8.164 0.927,8.297 1.252,8.32C1.577,8.344 1.9,8.256 2.163,8.072C7.355,4.473 13.597,2.541 20,2.55C26.657,2.55 32.818,4.596 37.837,8.069C38.378,8.447 39.135,8.401 39.611,7.944Z" fill="#FFFFFF"/>
</svg>
