<svg width="50" height="40" viewBox="0 0 50 40" fill="none" xmlns="http://www.w3.org/2000/svg" xmlns:xlink="http://www.w3.org/1999/xlink">
<path d="M49.513,12.105C49.68,11.915 49.809,11.685 49.893,11.431C49.976,11.177 50.012,10.904 49.997,10.632C49.981,10.361 49.916,10.096 49.805,9.856C49.694,9.617 49.54,9.408 49.354,9.245C42.277,3.221 33.749,-0.016 25,0C16.25,-0.017 7.722,3.221 0.646,9.245C0.46,9.408 0.306,9.617 0.195,9.856C0.084,10.096 0.019,10.361 0.003,10.632C-0.012,10.904 0.024,11.177 0.107,11.431C0.191,11.685 0.32,11.915 0.487,12.105C0.777,12.44 1.159,12.643 1.565,12.679C1.971,12.714 2.375,12.58 2.704,12.3C9.194,6.816 16.997,3.872 25,3.886C33.322,3.886 41.022,7.003 47.296,12.296C47.973,12.871 48.919,12.801 49.513,12.105Z" fill="#FFFFFF"/>
<path d="M42.357,20.484C43.074,19.645 43.001,18.238 42.148,17.589C37.044,13.708 31.086,11.647 25,11.659C18.677,11.659 12.785,13.835 7.852,17.589C7.655,17.745 7.49,17.951 7.37,18.191C7.249,18.431 7.176,18.7 7.156,18.978C7.136,19.256 7.169,19.535 7.254,19.796C7.338,20.056 7.471,20.292 7.643,20.484C7.926,20.807 8.294,21.008 8.688,21.054C9.081,21.1 9.476,20.988 9.807,20.737C14.342,17.337 19.615,15.534 25,15.545C30.385,15.534 35.658,17.337 40.193,20.737C40.873,21.25 41.786,21.156 42.357,20.484ZM35.111,28.968C35.861,28.089 35.725,26.616 34.779,26.053C31.75,24.248 28.399,23.311 25,23.317C21.482,23.317 18.156,24.304 15.221,26.053C14.275,26.616 14.139,28.089 14.889,28.968L14.939,29.026C15.47,29.648 16.293,29.764 16.967,29.376C19.467,27.941 22.216,27.198 25,27.203C27.881,27.203 30.61,27.984 33.033,29.38C33.707,29.768 34.526,29.652 35.061,29.026L35.111,28.968ZM28.518,36.686C29.169,35.924 29.176,34.665 28.386,34.121C27.362,33.407 26.192,33.031 25,33.033C23.808,33.031 22.638,33.407 21.614,34.121C20.824,34.665 20.831,35.924 21.482,36.686L23.825,39.429C23.979,39.61 24.162,39.754 24.364,39.852C24.566,39.95 24.782,40 25,40C25.218,40 25.434,39.95 25.636,39.852C25.838,39.754 26.021,39.61 26.175,39.429L28.522,36.682L28.518,36.686Z" fill="#FFFFFF"/>
</svg>
